<?xml version="1.0" encoding="UTF-8" standalone="no"?>
<!DOCTYPE svg PUBLIC "-//W3C//DTD SVG 1.1//EN" "http://www.w3.org/Graphics/SVG/1.1/DTD/svg11.dtd">
<svg width="100%" height="100%" viewBox="0 0 500 500" version="1.1" xmlns="http://www.w3.org/2000/svg" xmlns:xlink="http://www.w3.org/1999/xlink" xml:space="preserve" xmlns:serif="http://www.serif.com/" style="fill-rule:evenodd;clip-rule:evenodd;stroke-linejoin:round;stroke-miterlimit:2;">
    <g id="Prancheta1" transform="matrix(0.833333,0,0,0.833333,0,0)">
        <rect x="0" y="0" width="600" height="600" style="fill:none;"/>
        <g id="_1" transform="matrix(0.024337,0,0,0.024337,-61.409571,44.457965)">
            <path d="M5977.27,11585.67L4315.14,14320.45C4152.55,14587.44 4004.92,14767 3874.36,14858.34C3743.1,14949.71 3589.89,14995.76 3414.08,14995.76C3211.73,14995.76 3016.38,14964.53 2828.11,14902.06L2967.18,14275.17C3048.39,14314.97 3134.71,14334.51 3225.33,14334.51C3384.09,14334.51 3521.34,14226.76 3638.31,14012.07L3513.38,11585.67L4314.01,11585.67L4231.55,13271.18L4239.73,13271.18L5156.21,11585.67L5977.27,11585.67ZM5961.82,12250.84C6037.7,12020.51 6170.08,11843.31 6359.75,11718.38C6549.48,11592.68 6827.94,11530.24 7195.2,11530.24C7611.52,11530.24 7885.97,11590.35 8017.86,11709.8C8149.66,11830.02 8202.3,12004.13 8175.68,12232.86C8157.94,12385.11 8091.99,12635.71 7978.34,12985.46C7871.75,13315.7 7810.88,13546 7795.78,13675.59C7782.96,13785.67 7787.6,13898.1 7808.38,14012.07L7015.93,14012.07C7008.71,13916.05 7009.9,13823.91 7020.27,13734.93C6781.67,13958.21 6530.98,14069.06 6268.66,14069.06C6001.54,14069.06 5817.76,13997.25 5717.2,13854.38C5616.73,13710.74 5577.48,13544.44 5599.49,13355.51C5624.47,13140.83 5695.36,12976.88 5813.45,12863.68C5930.8,12751.24 6068.49,12674.75 6226.54,12634.15C6383.9,12593.54 6597.17,12558.42 6865.77,12527.95C7104.21,12499.08 7264.97,12470.2 7346.52,12442.86C7370.55,12371.05 7385.1,12316.4 7389.53,12278.15C7396.65,12217.25 7375.68,12168.84 7326.15,12132.15C7275.9,12095.47 7206.54,12076.73 7117.96,12076.73C7024.62,12076.73 6946.97,12093.91 6885.07,12128.26C6823.14,12162.59 6763.59,12235.19 6707.25,12344.51L5961.82,12250.84ZM7200.38,12925.35C6817.94,12997.15 6591.17,13060.42 6519.31,13115.84C6448.23,13170.5 6407.97,13235.29 6399.24,13310.22C6390.23,13387.51 6406.24,13449.18 6447.37,13493.7C6489.11,13538.99 6546.45,13561.61 6619.37,13561.61C6721.58,13561.61 6828.63,13514 6940.58,13418.74C7051.83,13323.51 7138.45,13158.77 7200.38,12925.35ZM10915.94,11942.46C11087.8,11783.17 11240.02,11675.45 11373.48,11617.66C11506.38,11559.12 11643.95,11530.24 11786.36,11530.24C11978.52,11530.24 12115.47,11588.79 12197.32,11705.12C12279.77,11822.21 12311.02,11963.52 12291.64,12129.82C12280.1,12228.94 12260.05,12325 12232.21,12417.87L11745.43,14012.07L10928.44,14012.07L11245.32,12976.09C11325.09,12712.2 11370.61,12555.3 11381.98,12504.56C11393.25,12454.59 11399.37,12419.44 11401.67,12399.93C11416.46,12272.67 11372.03,12209.44 11268.48,12209.44C11147.19,12209.44 11040.21,12267.99 10947.72,12383.55C10855.23,12499.08 10770.48,12682.56 10695.08,12932.36L10367.67,14012.07L9551.35,14012.07L9861.36,12994.03C9943.5,12721.57 9990.96,12559.98 10002.98,12509.24C10014.94,12459.27 10022.13,12421 10025.13,12395.24C10039.49,12271.9 9992.25,12209.44 9883.24,12209.44C9800.77,12209.44 9707.94,12257.85 9605.36,12354.64C9503.45,12451.46 9416.14,12616.2 9345.53,12848.06L8990.58,14012.07L8172.25,14012.07L8909.93,11585.67L9666.28,11585.67L9559.74,11933.09L9566.8,11942.46C9831.83,11667.64 10109.5,11530.24 10399.08,11530.24C10532.62,11530.24 10645.63,11566.13 10740.17,11637.97C10834.02,11709.8 10893.07,11811.28 10915.94,11942.46ZM12777.01,12250.84C12852.89,12020.51 12985.27,11843.31 13174.94,11718.38C13364.67,11592.68 13643.13,11530.24 14010.39,11530.24C14426.71,11530.24 14701.15,11590.35 14833.04,11709.8C14964.85,11830.02 15017.48,12004.13 14990.86,12232.86C14973.12,12385.11 14907.15,12635.71 14793.53,12985.46C14686.93,13315.7 14626.04,13546 14610.96,13675.59C14598.15,13785.67 14602.79,13898.1 14623.57,14012.07L13831.12,14012.07C13823.9,13916.05 13825.09,13823.91 13835.46,13734.93C13596.86,13958.21 13346.16,14069.06 13083.84,14069.06C12816.73,14069.06 12632.95,13997.25 12532.38,13854.38C12431.91,13710.74 12392.67,13544.44 12414.68,13355.51C12439.66,13140.83 12510.55,12976.88 12628.64,12863.68C12745.98,12751.24 12883.67,12674.75 13041.73,12634.15C13199.09,12593.54 13412.35,12558.42 13680.96,12527.95C13919.4,12499.08 14080.16,12470.2 14161.71,12442.86C14185.73,12371.05 14200.29,12316.4 14204.71,12278.15C14211.8,12217.25 14190.87,12168.84 14141.34,12132.15C14091.09,12095.47 14021.72,12076.73 13933.15,12076.73C13839.8,12076.73 13762.15,12093.91 13700.26,12128.26C13638.33,12162.59 13578.77,12235.19 13522.43,12344.51L12777.01,12250.84ZM14015.57,12925.35C13633.12,12997.15 13406.36,13060.42 13334.5,13115.84C13263.42,13170.5 13223.15,13235.29 13214.42,13310.22C13205.42,13387.51 13221.42,13449.18 13262.56,13493.7C13304.3,13538.99 13361.64,13561.61 13434.55,13561.61C13536.76,13561.61 13643.82,13514 13755.77,13418.74C13867.02,13323.51 13953.64,13158.77 14015.57,12925.35Z" style="fill:rgb(40,68,128);"/>
        </g>
        <g id="_1_0" transform="matrix(0.024337,0,0,0.024337,-61.409571,44.457965)">
            <path d="M16200.9,13767.05C16334.03,13647.19 16453.07,13566.52 16558.78,13525.04C16664.5,13483.56 16791.37,13462.82 16939.38,13462.82C17213.47,13462.82 17423.37,13551.93 17569.02,13730.93C17715.47,13909.16 17788.31,14150.41 17788.31,14453.1C17788.31,14858.74 17678.67,15212.14 17459.37,15513.29C17239.31,15815.2 16962.1,15965.78 16627.7,15965.78C16286.26,15965.78 16028.6,15839.8 15853.97,15587.81L15586.11,16818.57L14649.49,16818.57L15374.68,13517.35L16237.7,13517.35L16191.5,13757.82L16200.9,13767.05ZM16379.46,15346.56C16515.72,15346.56 16633.19,15262.06 16731.08,15092.28C16828.97,14923.25 16877.53,14717.36 16877.53,14476.13C16877.53,14328.63 16846.19,14223.39 16783.54,14158.85C16720.89,14094.31 16645.71,14062.05 16558.78,14062.05C16385.72,14062.05 16253.36,14156.53 16160.93,14346.3C16067.77,14536.06 16021.54,14730.44 16021.54,14928.65C16021.54,15069.22 16058.34,15174.49 16130.39,15243.64C16203.23,15312.77 16286.26,15346.56 16379.46,15346.56ZM20360.12,13535.02C20360.12,13535.02 20016.33,14241.81 20016.33,14241.81C19944.28,14224.93 19880.07,14217.24 19823.68,14217.24C19644.35,14217.24 19499.47,14280.22 19387.46,14406.23C19276.28,14532.23 19189.35,14734.27 19128.26,15011.61L18935.61,15905.1L17999.75,15905.1L18518.21,13517.35L19392.15,13517.35L19284.1,13987.53L19293.5,13996.76C19439.15,13784.71 19566.82,13643.36 19676.43,13571.13C19786.88,13498.93 19907.48,13462.82 20039.04,13462.82C20138.5,13462.82 20245.78,13487.39 20360.12,13535.02ZM21571.64,13517.35L21048.52,15905.1L20110.32,15905.1L20631.08,13517.35L21571.64,13517.35ZM22975.8,13886.12C23232.66,13604.17 23546.72,13462.82 23916.36,13462.82C24137.18,13462.82 24301.66,13518.14 24412.07,13628.74C24522.48,13738.62 24577.31,13873.82 24577.31,14034.38C24577.31,14130.42 24546.76,14320.19 24485.68,14602.14L24202.97,15905.1L23267.14,15905.1L23508.35,14795.74C23566.3,14523.76 23595.28,14368.57 23595.28,14329.41C23595.28,14197.26 23534.16,14131.21 23412.02,14131.21C23274.16,14131.21 23154.36,14194.97 23051.77,14321.73C22949.19,14448.49 22871.65,14631.32 22819.95,14869.47L22590.5,15905.1L21649.94,15905.1L22173.1,13517.35L23047.08,13517.35L22966.41,13876.9L22975.8,13886.12ZM26871.9,13517.35L26729.38,14171.9L26240.7,14171.9L26062.14,15016.22C26049.61,15052.34 26043.35,15089.99 26043.35,15130.69C26043.35,15239.03 26116.19,15292.81 26261.05,15292.81C26307.28,15292.81 26403.6,15278.97 26550.82,15249.76L26410.63,15905.1C26128.72,15942.75 25922.75,15961.17 25791.18,15961.17C25529.62,15961.17 25344,15899.73 25234.35,15776.8C25125.51,15653.86 25070.68,15519.44 25070.68,15374.23C25070.68,15325.82 25092.63,15197.55 25137.26,14989.33L25311.89,14171.9L24976.72,14171.9L25114.55,13517.35L25455.98,13517.35L25536.65,13143.21L26580.56,12632.34L26387.91,13517.35L26871.9,13517.35Z" style="fill:rgb(40,68,128);"/>
        </g>
        <g id="_1_1" transform="matrix(0.024337,0,0,0.024337,-61.409571,44.457965)">
            <path d="M21586.81,12274.63C21834.22,12456.6 21848.78,12788.87 21623.19,13018.31C21397.61,13247.74 21004.66,13287.29 20757.24,13113.24C20509.83,12931.28 20495.27,12599 20720.86,12369.57C20953.72,12140.14 21339.39,12100.58 21586.81,12274.63Z" style="fill:rgb(237,50,55);"/>
        </g>
        <g transform="matrix(0.024337,0,0,0.024337,-61.409571,44.457965)">
            <path d="M19412.74,10943.85C19412.74,10943.85 19397.2,10970.97 19397.2,10970.97L19411.36,10968.35C19879.41,11115.07 20299.72,11352.09 20587.6,11753.25C20596.23,11740.56 20605.4,11727.73 20614.99,11715.02L20718.48,11808.76L20984.38,12072.17L20987.29,12060.82C20988.31,11959.49 20938.94,11785.06 20944.73,11679.64C20948.37,11613.44 20952.8,11546.52 20958.15,11479.25C20978.02,11483.53 20990.12,11482.62 21000.04,11490.95C21014.43,10894.4 21130.91,10325.61 21227.44,9725.55L21231.6,9689.14C21242.5,9604.16 21251.19,9518.19 21271.92,9437.32L19783.58,6927.04C19666.46,6789.91 19606.99,6576.38 19415.9,6529.73C19279.57,6418.06 19232.34,6255.77 19076.77,6169.56C19043.57,6101.14 19029.57,6007.26 18928.21,6006.62C18797.68,5872.24 18578.05,5788.49 18441.7,5676.79C18435.28,5602.87 18258.75,5499.46 18203.4,5467.85C18161.45,5433.5 18122.39,5387.79 18069.98,5344.83C17969.77,5290.22 17896.36,5230.09 17760.62,5215.05C17546.23,5259.21 17294.59,5300.32 17072.08,5475.17C16934.04,5568.12 16754.65,5723.36 16613.7,5827.65C16362.1,6116.05 16134.96,6506.89 16270.76,6769.21C16301.08,6848.95 16380.29,6886.41 16397.2,6968.93C16506.14,6989.48 16530.64,7091.96 16609.88,7129.39C16605.82,7194.73 16690.85,7209.48 16752.03,7218.37C16866.24,7366.86 17020.65,7507.09 17145.34,7664.15C17117.39,7723.67 17162.25,7746.7 17183.24,7763.87C17303.81,7739.03 17301.51,7847.01 17386.57,7861.76L17721.02,8190.65L17711.14,8278.7C17908.08,8549.92 18195.92,8813.14 18405.12,9135.6C18815.95,9760.58 19185.96,10297.18 19319.51,10914.76C19349.67,10924.14 19380.87,10933.78 19412.74,10943.85ZM20774.61,9890.71C20736.33,9966.26 20707.32,10049.93 20682.71,10113.22C20627.49,10113.38 20596.93,10050.28 20528.06,10062.73C20381.01,10079.48 20341.05,10214.18 20233.89,10302.15C20181.93,10389.99 20178.08,10459.32 20112.45,10559.42C20040.88,10533.13 19912.4,10566.15 19818.92,10641.86C19715.86,10718.21 19662.37,10795.39 19622.41,10914.71C20003.31,11042 20349.33,11238.01 20585.31,11577.81C20650.95,11477.7 20737.9,11397.56 20864.16,11374.74C20884.95,11380.81 20881.9,11378.72 20891.2,11386.84C20900.73,10818.21 21042.81,10267.1 21101.55,9704.18C20988.95,9714.71 20828.26,9743.75 20774.61,9890.71ZM17522.37,7737C17540.27,7813.7 17632.6,7867.29 17688.86,7927.24L17933.38,8183.57L17999.66,8092.07L18011.69,8089.93L17939.29,8262.38L17972.41,8216.62L17998.73,8202.01C17999.82,8461.3 18247.56,8597.31 18380.25,8783.54L18700.57,9116.36L18739.33,9309.14L19040.79,9675.22L19048.96,9743.64L19175.51,10010.79L19304.33,10267.55L19518.46,10768.79C19584.04,10627.49 19634.64,10448.9 19824.08,10375.59C19872.19,10367.12 19963.16,10321.14 20016.48,10341.71C20044.4,10266.91 20084.34,10190.03 20112.26,10115.25C20224.33,10025.62 20294.46,9863.56 20446.23,9856.78C20482.32,9850.42 20567.14,9885.39 20586.67,9901.9C20633.42,9793.86 20689.23,9644.31 20801.33,9554.68C20892.29,9508.73 20966.72,9485.62 21048.63,9481.19C20946.12,9209.81 20776.67,8980.17 20659.87,8721.27C20611.09,8679.97 20593.19,8603.27 20546.68,8551.6C20522.63,8555.82 20533.99,8503.91 20514.46,8487.4C20467.97,8435.71 20423.73,8373.62 20379.49,8311.56C20192.14,8005.22 20031.77,7734.06 19818.1,7442.35C19680.19,7227.11 19585.17,6974.38 19404.36,6796.62C19372.83,6782.22 19312.72,6792.83 19260.07,6822.05C19241.23,6855.31 19224.67,6878.18 19205.83,6911.44C19162.29,6899.15 19221.73,6838.78 19238.29,6815.91C19266.88,6790.9 19283.44,6768.03 19319.53,6761.68C19219.03,6639.64 19132.85,6505.13 18989.47,6420.6C18402.96,6723.53 17781.75,7132.38 17522.37,7737ZM17181.56,5678.18C16222.4,6242.49 16504.7,6993.32 16701.97,6928.91C16903.91,7209.61 17035.56,7235.85 17182.68,7348.29L17243.57,7436.4L17495.68,7016.41L18250.41,6339.87L18603.4,6139.32L18448.16,5959.09C18295.19,5768.61 17908.14,5392.03 17546.44,5475.52C17425.1,5506.78 17415.45,5498.6 17266.49,5603.91C17240.42,5618.39 17207.61,5663.7 17181.56,5678.18Z" style="fill:none;"/>
        </g>
        <g id="_1_4" transform="matrix(0.024337,0,0,0.024337,-61.409571,44.457965)">
            <path d="M19412.74,10943.85C19412.74,10943.85 19397.2,10970.97 19397.2,10970.97L19411.36,10968.35C19879.41,11115.07 20299.72,11352.09 20587.6,11753.25C20596.23,11740.56 20605.4,11727.73 20614.99,11715.02L20718.48,11808.76L20984.38,12072.17L20987.29,12060.82C20988.31,11959.49 20938.94,11785.06 20944.73,11679.64C20948.37,11613.44 20952.8,11546.52 20958.15,11479.25C20978.02,11483.53 20990.12,11482.62 21000.04,11490.95C21014.43,10894.4 21130.91,10325.61 21227.44,9725.55L21231.6,9689.14C21242.5,9604.16 21251.19,9518.19 21271.92,9437.32L19783.58,6927.04C19666.46,6789.91 19606.99,6576.38 19415.9,6529.73C19279.57,6418.06 19232.34,6255.77 19076.77,6169.56C19043.57,6101.14 19029.57,6007.26 18928.21,6006.62C18797.68,5872.24 18578.05,5788.49 18441.7,5676.79C18435.28,5602.87 18258.75,5499.46 18203.4,5467.85C18161.45,5433.5 18122.39,5387.79 18069.98,5344.83C17969.77,5290.22 17896.36,5230.09 17760.62,5215.05C17546.23,5259.21 17294.59,5300.32 17072.08,5475.17C16934.04,5568.12 16754.65,5723.36 16613.7,5827.65C16362.1,6116.05 16134.96,6506.89 16270.76,6769.21C16301.08,6848.95 16380.29,6886.41 16397.2,6968.93C16506.14,6989.48 16530.64,7091.96 16609.88,7129.39C16605.82,7194.73 16690.85,7209.48 16752.03,7218.37C16866.24,7366.86 17020.65,7507.09 17145.34,7664.15C17117.39,7723.67 17162.25,7746.7 17183.24,7763.87C17303.81,7739.03 17301.51,7847.01 17386.57,7861.76L17721.02,8190.65L17711.14,8278.7C17908.08,8549.92 18195.92,8813.14 18405.12,9135.6C18815.95,9760.58 19185.96,10297.18 19319.51,10914.76C19349.67,10924.14 19380.87,10933.78 19412.74,10943.85ZM20774.61,9890.71C20736.33,9966.26 20707.32,10049.93 20682.71,10113.22C20627.49,10113.38 20596.93,10050.28 20528.06,10062.73C20381.01,10079.48 20341.05,10214.18 20233.89,10302.15C20181.93,10389.99 20178.08,10459.32 20112.45,10559.42C20040.88,10533.13 19912.4,10566.15 19818.92,10641.86C19715.86,10718.21 19662.37,10795.39 19622.41,10914.71C20003.31,11042 20349.33,11238.01 20585.31,11577.81C20650.95,11477.7 20737.9,11397.56 20864.16,11374.74C20884.95,11380.81 20881.9,11378.72 20891.2,11386.84C20900.73,10818.21 21042.81,10267.1 21101.55,9704.18C20988.95,9714.71 20828.26,9743.75 20774.61,9890.71ZM17522.37,7737C17540.27,7813.7 17632.6,7867.29 17688.86,7927.24L17933.38,8183.57L17999.66,8092.07L18011.69,8089.93L17939.29,8262.38L17972.41,8216.62L17998.73,8202.01C17999.82,8461.3 18247.56,8597.31 18380.25,8783.54L18700.57,9116.36L18739.33,9309.14L19040.79,9675.22L19048.96,9743.64L19175.51,10010.79L19304.33,10267.55L19518.46,10768.79C19584.04,10627.49 19634.64,10448.9 19824.08,10375.59C19872.19,10367.12 19963.16,10321.14 20016.48,10341.71C20044.4,10266.91 20084.34,10190.03 20112.26,10115.25C20224.33,10025.62 20294.46,9863.56 20446.23,9856.78C20482.32,9850.42 20567.14,9885.39 20586.67,9901.9C20633.42,9793.86 20689.23,9644.31 20801.33,9554.68C20892.29,9508.73 20966.72,9485.62 21048.63,9481.19C20946.12,9209.81 20776.67,8980.17 20659.87,8721.27C20611.09,8679.97 20593.19,8603.27 20546.68,8551.6C20522.63,8555.82 20533.99,8503.91 20514.46,8487.4C20467.97,8435.71 20423.73,8373.62 20379.49,8311.56C20192.14,8005.22 20031.77,7734.06 19818.1,7442.35C19680.19,7227.11 19585.17,6974.38 19404.36,6796.62C19372.83,6782.22 19312.72,6792.83 19260.07,6822.05C19241.23,6855.31 19224.67,6878.18 19205.83,6911.44C19162.29,6899.15 19221.73,6838.78 19238.29,6815.91C19266.88,6790.9 19283.44,6768.03 19319.53,6761.68C19219.03,6639.64 19132.85,6505.13 18989.47,6420.6C18402.96,6723.53 17781.75,7132.38 17522.37,7737ZM17181.56,5678.18C16222.4,6242.49 16504.7,6993.32 16701.97,6928.91C16903.91,7209.61 17035.56,7235.85 17182.68,7348.29L17243.57,7436.4L17495.68,7016.41L18250.41,6339.87L18603.4,6139.32L18448.16,5959.09C18295.19,5768.61 17908.14,5392.03 17546.44,5475.52C17425.1,5506.78 17415.45,5498.6 17266.49,5603.91C17240.42,5618.39 17207.61,5663.7 17181.56,5678.18Z" style="fill:rgb(237,50,55);"/>
        </g>
        <g transform="matrix(0.024337,0,0,0.024337,-61.409571,44.457965)">
            <path d="M18930.77,6978.02C18836.31,6974.22 18734.68,6970.13 18651.89,7020.55L18640.78,7027.31L18633.78,7016.54L18574.9,6926.22L18565.41,6911.68L18581.95,6906.1C18597.47,6900.86 18617.38,6893.46 18639.42,6885.23L18639.47,6885.26C18721.99,6854.56 18834.92,6812.51 18909.45,6815.05L18909.53,6815.05L18912.61,6815.19L18919.47,6815.51L18923.16,6821.12C18930.85,6832.93 18940.58,6843.85 18950.12,6854.54L18950.14,6854.59C18977.28,6885.07 19003.33,6914.33 18994.73,6968.35L18992.86,6980.05L18981.13,6979.78C18967.45,6979.51 18948.97,6978.71 18930.77,6978.02Z" style="fill:none;"/>
        </g>
        <g id="_1_13" transform="matrix(0.024337,0,0,0.024337,-61.409571,44.457965)">
            <path d="M18930.77,6978.02C18836.31,6974.22 18734.68,6970.13 18651.89,7020.55L18640.78,7027.31L18633.78,7016.54L18574.9,6926.22L18565.41,6911.68L18581.95,6906.1C18597.47,6900.86 18617.38,6893.46 18639.42,6885.23L18639.47,6885.26C18721.99,6854.56 18834.92,6812.51 18909.45,6815.05L18909.53,6815.05L18912.61,6815.19L18919.47,6815.51L18923.16,6821.12C18930.85,6832.93 18940.58,6843.85 18950.12,6854.54L18950.14,6854.59C18977.28,6885.07 19003.33,6914.33 18994.73,6968.35L18992.86,6980.05L18981.13,6979.78C18967.45,6979.51 18948.97,6978.71 18930.77,6978.02Z" style="fill:rgb(237,50,55);"/>
        </g>
        <g transform="matrix(0.024337,0,0,0.024337,-61.409571,44.457965)">
            <path d="M18205.99,7480.64C18169.25,7476.39 18125.31,7471.26 18102.47,7436.21L18098.24,7429.77L18101.8,7422.8C18115.05,7396.75 18128.14,7367.07 18141.34,7336.99C18176.68,7256.52 18213.49,7172.85 18274.46,7118.32L18274.81,7118.03C18300.99,7094.71 18328.96,7081.67 18353.8,7078.55C18366.28,7077 18378.17,7077.9 18388.72,7081.22C18399.78,7084.69 18409.48,7090.78 18417.06,7099.3C18426.07,7109.43 18432.19,7123 18434.3,7139.75L18435.55,7149.77L18426.28,7153.8C18338.04,7192.41 18321.1,7270.07 18304.49,7346.39C18294.07,7394.27 18283.7,7441.82 18256.99,7481.49L18251.22,7490.07L18241.46,7486.7C18233.05,7483.84 18220.09,7482.32 18205.99,7480.69L18205.99,7480.64Z" style="fill:none;"/>
        </g>
        <g id="_1_14" transform="matrix(0.024337,0,0,0.024337,-61.409571,44.457965)">
            <path d="M18205.99,7480.64C18169.25,7476.39 18125.31,7471.26 18102.47,7436.21L18098.24,7429.77L18101.8,7422.8C18115.05,7396.75 18128.14,7367.07 18141.34,7336.99C18176.68,7256.52 18213.49,7172.85 18274.46,7118.32L18274.81,7118.03C18300.99,7094.71 18328.96,7081.67 18353.8,7078.55C18366.28,7077 18378.17,7077.9 18388.72,7081.22C18399.78,7084.69 18409.48,7090.78 18417.06,7099.3C18426.07,7109.43 18432.19,7123 18434.3,7139.75L18435.55,7149.77L18426.28,7153.8C18338.04,7192.41 18321.1,7270.07 18304.49,7346.39C18294.07,7394.27 18283.7,7441.82 18256.99,7481.49L18251.22,7490.07L18241.46,7486.7C18233.05,7483.84 18220.09,7482.32 18205.99,7480.69L18205.99,7480.64Z" style="fill:rgb(237,50,55);"/>
        </g>
        <g transform="matrix(0.024337,0,0,0.024337,-61.409571,44.457965)">
            <path d="M19504.75,7588.62C19498.95,7587.29 19493.72,7585.9 19489.44,7584.48C19477.58,7580.93 19467.7,7571.76 19463.53,7559.1C19456.69,7538.32 19468.05,7515.72 19488.88,7508.69C19516.59,7499.34 19547.63,7489.59 19577.02,7482.75L19579.53,7482.05C19612.47,7474.57 19644.21,7470.89 19669.29,7475.35L19669.29,7475.4L19671.62,7475.86C19707.41,7484.51 19739.9,7494.08 19763.01,7512.35L19762.98,7512.38L19763.12,7512.46C19794.19,7537.06 19806.69,7570.32 19787.99,7620.41C19783.45,7632.62 19773.16,7642.4 19759.56,7645.61C19738.16,7650.65 19716.84,7637.4 19712.01,7616.03C19710.19,7607.88 19707.28,7600.22 19702.98,7593.99C19703.38,7600.62 19704.13,7607.16 19704.82,7613.6L19704.69,7613.63L19704.72,7613.71C19707.36,7637.88 19709.79,7660.99 19702.23,7687.33C19755.48,7848.99 19740.49,8107.46 19650.54,8324.09C19603.44,8437.47 19535.77,8540.3 19446.57,8613.29C19355.33,8687.93 19242.33,8731.37 19106.75,8723.68C18933.42,8713.82 18723.46,8619 18476.08,8395.48C18464.54,8410.28 18459.09,8421.52 18457.65,8430.47C18456.42,8438.14 18459.94,8446.08 18465.18,8454.3L18465.85,8455.29L18466.03,8455.53L18466.01,8455.53C18469.29,8460.5 18471.54,8466.25 18472.26,8472.55C18474.77,8494.35 18459.14,8514.31 18437.31,8517.06L18424.06,8518.74L18424.06,8518.66C18413.14,8520.05 18401.7,8516.87 18392.89,8508.99C18369.56,8488.23 18346.8,8462.61 18345.23,8423.66C18343.84,8388.1 18361.71,8346.37 18417.55,8296.66L18417.63,8296.76C18419.95,8294.71 18422.62,8292.81 18425.48,8291.29C18431.36,8288.16 18441,8281.59 18451.45,8274.48C18480.06,8255.03 18514.25,8231.77 18550.59,8226.5L18550.61,8226.61L18551.26,8226.5L18551.42,8226.48L18554.03,8226.02C18574.31,8223.46 18600.95,8220.25 18619.3,8223.16L18619.3,8223.22C18647.3,8227.65 18663.73,8241.54 18661.19,8269.97C18660.63,8287.2 18649.01,8302.35 18632.5,8307.29C18625.07,8313.86 18617.3,8320.27 18601.72,8323.05C18596.91,8324.15 18591.86,8324.36 18586.71,8323.59C18583.13,8323.03 18579.65,8322.09 18576.47,8320.67C18567.63,8321.69 18557.24,8322.44 18545.49,8320.78C18534.69,8323.53 18528.98,8321.02 18530.93,8323.85L18530.82,8323.93L18530.93,8324.07C18531.75,8325.3 18540.68,8329.78 18548.77,8333.82C18558.36,8338.57 18567.36,8343.22 18575.35,8349.61L18577.25,8351.05L18577.57,8351.32L18577.46,8351.42L18579.81,8353.45C18706.26,8479.63 18882.21,8555.56 19081.96,8519.78C19121.25,8512.73 19161.43,8501.46 19202.17,8485.53C19242.65,8469.72 19284.06,8449.2 19326.21,8423.53L19327.2,8422.86L19327.52,8422.67L19328.24,8422.19L19328.86,8421.82L19330.81,8420.67C19490.97,8335.18 19568.07,8215.55 19597.53,8072.84C19626.2,7933.86 19611.24,7771.41 19583.11,7596.58C19561.66,7596.64 19539.96,7594.79 19521.66,7591.85L19521.69,7591.77L19521.56,7591.75C19516.4,7590.92 19511.43,7590.09 19506.92,7589.1L19506.33,7589L19504.75,7588.62Z" style="fill:none;fill-rule:nonzero;"/>
        </g>
        <g id="_1_15" transform="matrix(0.024337,0,0,0.024337,-61.409571,44.457965)">
            <path d="M19504.75,7588.62C19498.95,7587.29 19493.72,7585.9 19489.44,7584.48C19477.58,7580.93 19467.7,7571.76 19463.53,7559.1C19456.69,7538.32 19468.05,7515.72 19488.88,7508.69C19516.59,7499.34 19547.63,7489.59 19577.02,7482.75L19579.53,7482.05C19612.47,7474.57 19644.21,7470.89 19669.29,7475.35L19669.29,7475.4L19671.62,7475.86C19707.41,7484.51 19739.9,7494.08 19763.01,7512.35L19762.98,7512.38L19763.12,7512.46C19794.19,7537.06 19806.69,7570.32 19787.99,7620.41C19783.45,7632.62 19773.16,7642.4 19759.56,7645.61C19738.16,7650.65 19716.84,7637.4 19712.01,7616.03C19710.19,7607.88 19707.28,7600.22 19702.98,7593.99C19703.38,7600.62 19704.13,7607.16 19704.82,7613.6L19704.69,7613.63L19704.72,7613.71C19707.36,7637.88 19709.79,7660.99 19702.23,7687.33C19755.48,7848.99 19740.49,8107.46 19650.54,8324.09C19603.44,8437.47 19535.77,8540.3 19446.57,8613.29C19355.33,8687.93 19242.33,8731.37 19106.75,8723.68C18933.42,8713.82 18723.46,8619 18476.08,8395.48C18464.54,8410.28 18459.09,8421.52 18457.65,8430.47C18456.42,8438.14 18459.94,8446.08 18465.18,8454.3L18465.85,8455.29L18466.03,8455.53L18466.01,8455.53C18469.29,8460.5 18471.54,8466.25 18472.26,8472.55C18474.77,8494.35 18459.14,8514.31 18437.31,8517.06L18424.06,8518.74L18424.06,8518.66C18413.14,8520.05 18401.7,8516.87 18392.89,8508.99C18369.56,8488.23 18346.8,8462.61 18345.23,8423.66C18343.84,8388.1 18361.71,8346.37 18417.55,8296.66L18417.63,8296.76C18419.95,8294.71 18422.62,8292.81 18425.48,8291.29C18431.36,8288.16 18441,8281.59 18451.45,8274.48C18480.06,8255.03 18514.25,8231.77 18550.59,8226.5L18550.61,8226.61L18551.26,8226.5L18551.42,8226.48L18554.03,8226.02C18574.31,8223.46 18600.95,8220.25 18619.3,8223.16L18619.3,8223.22C18647.3,8227.65 18663.73,8241.54 18661.19,8269.97C18660.63,8287.2 18649.01,8302.35 18632.5,8307.29C18625.07,8313.86 18617.3,8320.27 18601.72,8323.05C18596.91,8324.15 18591.86,8324.36 18586.71,8323.59C18583.13,8323.03 18579.65,8322.09 18576.47,8320.67C18567.63,8321.69 18557.24,8322.44 18545.49,8320.78C18534.69,8323.53 18528.98,8321.02 18530.93,8323.85L18530.82,8323.93L18530.93,8324.07C18531.75,8325.3 18540.68,8329.78 18548.77,8333.82C18558.36,8338.57 18567.36,8343.22 18575.35,8349.61L18577.25,8351.05L18577.57,8351.32L18577.46,8351.42L18579.81,8353.45C18706.26,8479.63 18882.21,8555.56 19081.96,8519.78C19121.25,8512.73 19161.43,8501.46 19202.17,8485.53C19242.65,8469.72 19284.06,8449.2 19326.21,8423.53L19327.2,8422.86L19327.52,8422.67L19328.24,8422.19L19328.86,8421.82L19330.81,8420.67C19490.97,8335.18 19568.07,8215.55 19597.53,8072.84C19626.2,7933.86 19611.24,7771.41 19583.11,7596.58C19561.66,7596.64 19539.96,7594.79 19521.66,7591.85L19521.69,7591.77L19521.56,7591.75C19516.4,7590.92 19511.43,7590.09 19506.92,7589.1L19506.33,7589L19504.75,7588.62Z" style="fill:rgb(237,50,55);fill-rule:nonzero;"/>
        </g>
        <g id="_1_16" transform="matrix(0.024337,0,0,0.024337,-61.409571,44.457965)">
            <path d="M18903.04,7880.96C18917.12,7926.01 18946.54,7985.87 18993.76,8000.09C19410.96,7992.26 18855.7,7603.3 18903.04,7880.96Z" style="fill:rgb(237,50,55);"/>
        </g>
        <g transform="matrix(0.024337,0,0,0.024337,-61.409571,44.457965)">
            <path d="M18760.54,7399.1L18721.38,7408.37L18721.19,7407.57L18720.68,7405.41L18720.42,7401.37C18718.04,7365.41 18733.24,7327.72 18756.38,7301.67L18756.48,7301.57C18765.65,7291.31 18776.15,7282.54 18787.23,7276.21L18787.26,7276.24C18799.98,7268.97 18813.84,7264.43 18828.03,7263.5C18849.8,7262.05 18871.65,7268.6 18891.18,7285.96L18895.27,7289.62L18897.99,7293.79C18901.39,7299 18905.87,7304.4 18910.26,7309.66C18936.01,7340.62 18960.88,7370.68 18936.94,7437.63C18930.59,7465.14 18906.94,7493.19 18873.9,7509.04C18867.65,7512.03 18860.81,7514.78 18853.57,7516.97C18846.33,7519.16 18839.03,7520.87 18831.85,7521.91L18831.5,7521.81L18829.82,7522.05L18823.48,7522.96L18817.26,7521.83C18774.01,7514.11 18747.69,7480.26 18732.81,7444.33C18730.38,7438.43 18728.16,7432.23 18726.24,7426.06C18724.16,7419.35 18722.61,7413.64 18721.49,7408.72L18760.54,7399.1Z" style="fill:none;fill-rule:nonzero;"/>
        </g>
        <g id="_1_17" transform="matrix(0.024337,0,0,0.024337,-61.409571,44.457965)">
            <path d="M18760.54,7399.1L18721.38,7408.37L18721.19,7407.57L18720.68,7405.41L18720.42,7401.37C18718.04,7365.41 18733.24,7327.72 18756.38,7301.67L18756.48,7301.57C18765.65,7291.31 18776.15,7282.54 18787.23,7276.21L18787.26,7276.24C18799.98,7268.97 18813.84,7264.43 18828.03,7263.5C18849.8,7262.05 18871.65,7268.6 18891.18,7285.96L18895.27,7289.62L18897.99,7293.79C18901.39,7299 18905.87,7304.4 18910.26,7309.66C18936.01,7340.62 18960.88,7370.68 18936.94,7437.63C18930.59,7465.14 18906.94,7493.19 18873.9,7509.04C18867.65,7512.03 18860.81,7514.78 18853.57,7516.97C18846.33,7519.16 18839.03,7520.87 18831.85,7521.91L18831.5,7521.81L18829.82,7522.05L18823.48,7522.96L18817.26,7521.83C18774.01,7514.11 18747.69,7480.26 18732.81,7444.33C18730.38,7438.43 18728.16,7432.23 18726.24,7426.06C18724.16,7419.35 18722.61,7413.64 18721.49,7408.72L18760.54,7399.1Z" style="fill:rgb(237,50,55);fill-rule:nonzero;"/>
        </g>
        <g transform="matrix(0.024337,0,0,0.024337,-61.409571,44.457965)">
            <path d="M18843.07,7598.4L18847.07,7599.52L18843.04,7596.26L18843.07,7598.4ZM18841.09,7299.87C18888.09,7299.87 18926.2,7344.2 18926.2,7398.88C18926.2,7448.78 18894.46,7490.06 18853.18,7496.89C18863.4,7504.13 18872.95,7513.25 18882.61,7522.53C18891.93,7531.48 18901.63,7540.77 18907.74,7541.68C18927.03,7544.57 18951.02,7544.19 18979.58,7540.59C19005.58,7537.3 19035.12,7531.18 19068.3,7522.37C19073.01,7513.71 19076.85,7504.6 19079.82,7495.12C19088.74,7466.67 19090.91,7434.63 19090.13,7402.68C19083.91,7375.3 19076.48,7348.05 19067.53,7321.71L19062.8,7311.37L19063.76,7310.92L19063.71,7310.76L19062.69,7311.24C19056.55,7297.91 19050.51,7285 19045.3,7272.42L19036.41,7262.69L19036.33,7262.59C19016.85,7241.08 18989.89,7211.32 18958.69,7187.65C18908.28,7149.45 18842.77,7128.98 18778.04,7210.6C18767.12,7239.32 18759.55,7267.29 18756.94,7294C18754.77,7315.99 18755.87,7337.6 18761.26,7358.42L18762.94,7359.61C18776.01,7324.46 18806.08,7299.87 18841.09,7299.87ZM18930.43,7079.67C18957.89,7089.45 18984.02,7105.07 19007.95,7123.21C19044.05,7150.6 19074.37,7184.04 19096.3,7208.25L19110.3,7223.53L19115.3,7229.01L19117.91,7235.61C19123.15,7248.88 19129.54,7262.77 19136.11,7277.04L19136,7276.91L19136.08,7277.07L19136.11,7277.04L19136.08,7277.07C19176.39,7364.59 19223.36,7466.85 19125.31,7582.8L19117.17,7592.41L19105.3,7595.75C19072.71,7604.94 19042.47,7611.86 19014.82,7616.59C18963.9,7638.37 18915.2,7647.61 18871.47,7643.9L18871.47,7643.95C18860.86,7643.04 18850.36,7641.3 18840.24,7638.85C18836.31,7662.22 18828.43,7686.03 18816.3,7709.45C18809.46,7722.65 18801.34,7735.72 18792.01,7748.27C18782.69,7760.8 18772.11,7773.09 18760.3,7784.77L18760.06,7784.98L18759.23,7785.78L18757.1,7787.84L18754.19,7789.89C18746.41,7795.37 18738.5,7800.13 18730.6,7804.4C18658.92,7863.71 18596.38,7850.62 18534.34,7837.61C18491.44,7828.61 18448.67,7819.71 18405.52,7841.72C18362.86,7880.25 18331.39,7927.02 18331.31,7927.13L18329.81,7929.05C18271.15,7996.27 18263.37,8079.68 18257.33,8144.97C18255.73,8162.47 18254.18,8178.79 18251.96,8193.14L18251.96,8193.24L18251.72,8194.71L18242.51,8251.03L18214.75,8201.63C18198.24,8172.24 18188.84,8141.68 18186.73,8110.02C18184.64,8078.55 18189.72,8046.33 18201.98,8013.5L18202.62,8011.74L18203.64,8010.08C18210.58,7998.57 18216.22,7989.03 18221.86,7979.41C18271.28,7895.34 18337.32,7782.95 18429.46,7747.42L18419.95,7725.48C18354.74,7623.78 18375.58,7491.67 18398.52,7347.7L18398.47,7347.7L18398.66,7346.61L18399.19,7343.48L18400.66,7340.6C18410.97,7320.35 18425,7299.56 18443.99,7281.29C18450.11,7275.38 18456.82,7269.67 18464,7264.4L18465.18,7262.64L18466.73,7262.45C18481.45,7252.04 18498.31,7243.17 18517.81,7236.57L18518.53,7236.38C18572.41,7220.4 18599.02,7241.96 18626.81,7264.46L18626.86,7264.51C18633.33,7269.75 18639.79,7275.12 18646.76,7279.66L18663.91,7229.01L18664.26,7227.94L18665.09,7226.33C18693.7,7170.23 18745.34,7104.75 18807.78,7076.27C18820.55,7070.45 18833.85,7066.1 18847.42,7063.67C18861.21,7061.18 18875.5,7060.62 18889.93,7062.38L18890.09,7062.44L18891.29,7062.6L18893.77,7062.94L18895.88,7063.75C18908.01,7068.45 18919.45,7073.82 18930.43,7079.67ZM18762.28,7596.69C18729.87,7617.55 18689.83,7630.7 18657.29,7625.78L18654.56,7625.38L18651.04,7624.31L18650.82,7624.26L18650.82,7624.29L18650.5,7624.15L18650.82,7624.26L18650.82,7624.29C18644.09,7622.2 18637.55,7619.32 18631.24,7615.87L18630.92,7615.74C18625.5,7612.75 18619.83,7608.92 18614.22,7604.6C18589.65,7585.52 18570.01,7557.04 18559.48,7535.78L18556.79,7530.36L18555.85,7524.21C18550.88,7491.75 18550.83,7461.88 18563.95,7434.29C18572.41,7416.44 18585.5,7401 18605.11,7388.39C18601.56,7383.47 18597.79,7378.91 18593.81,7374.77C18570.6,7350.72 18540.36,7339.98 18511.13,7339.42C18436.57,7466.88 18477.01,7603.69 18513.32,7722.28L18523.58,7726.9C18532.74,7730.93 18542.31,7734.75 18551.66,7737.88C18597.85,7753.29 18655.37,7759.6 18705.16,7726.37C18713.52,7717.92 18721,7709.24 18727.47,7700.56C18734.26,7691.42 18740.05,7682.15 18744.75,7673.07C18758.43,7646.67 18764.1,7620.28 18762.28,7596.69ZM18398.52,7347.65L18398.47,7347.7L18398.52,7347.7L18398.52,7347.65Z" style="fill:none;fill-rule:nonzero;"/>
        </g>
        <g id="_1_18" transform="matrix(0.024337,0,0,0.024337,-61.409571,44.457965)">
            <path d="M18843.07,7598.4L18847.07,7599.52L18843.04,7596.26L18843.07,7598.4ZM18841.09,7299.87C18888.09,7299.87 18926.2,7344.2 18926.2,7398.88C18926.2,7448.78 18894.46,7490.06 18853.18,7496.89C18863.4,7504.13 18872.95,7513.25 18882.61,7522.53C18891.93,7531.48 18901.63,7540.77 18907.74,7541.68C18927.03,7544.57 18951.02,7544.19 18979.58,7540.59C19005.58,7537.3 19035.12,7531.18 19068.3,7522.37C19073.01,7513.71 19076.85,7504.6 19079.82,7495.12C19088.74,7466.67 19090.91,7434.63 19090.13,7402.68C19083.91,7375.3 19076.48,7348.05 19067.53,7321.71L19062.8,7311.37L19063.76,7310.92L19063.71,7310.76L19062.69,7311.24C19056.55,7297.91 19050.51,7285 19045.3,7272.42L19036.41,7262.69L19036.33,7262.59C19016.85,7241.08 18989.89,7211.32 18958.69,7187.65C18908.28,7149.45 18842.77,7128.98 18778.04,7210.6C18767.12,7239.32 18759.55,7267.29 18756.94,7294C18754.77,7315.99 18755.87,7337.6 18761.26,7358.42L18762.94,7359.61C18776.01,7324.46 18806.08,7299.87 18841.09,7299.87ZM18930.43,7079.67C18957.89,7089.45 18984.02,7105.07 19007.95,7123.21C19044.05,7150.6 19074.37,7184.04 19096.3,7208.25L19110.3,7223.53L19115.3,7229.01L19117.91,7235.61C19123.15,7248.88 19129.54,7262.77 19136.11,7277.04L19136,7276.91L19136.08,7277.07L19136.11,7277.04L19136.08,7277.07C19176.39,7364.59 19223.36,7466.85 19125.31,7582.8L19117.17,7592.41L19105.3,7595.75C19072.71,7604.94 19042.47,7611.86 19014.82,7616.59C18963.9,7638.37 18915.2,7647.61 18871.47,7643.9L18871.47,7643.95C18860.86,7643.04 18850.36,7641.3 18840.24,7638.85C18836.31,7662.22 18828.43,7686.03 18816.3,7709.45C18809.46,7722.65 18801.34,7735.72 18792.01,7748.27C18782.69,7760.8 18772.11,7773.09 18760.3,7784.77L18760.06,7784.98L18759.23,7785.78L18757.1,7787.84L18754.19,7789.89C18746.41,7795.37 18738.5,7800.13 18730.6,7804.4C18658.92,7863.71 18596.38,7850.62 18534.34,7837.61C18491.44,7828.61 18448.67,7819.71 18405.52,7841.72C18362.86,7880.25 18331.39,7927.02 18331.31,7927.13L18329.81,7929.05C18271.15,7996.27 18263.37,8079.68 18257.33,8144.97C18255.73,8162.47 18254.18,8178.79 18251.96,8193.14L18251.96,8193.24L18251.72,8194.71L18242.51,8251.03L18214.75,8201.63C18198.24,8172.24 18188.84,8141.68 18186.73,8110.02C18184.64,8078.55 18189.72,8046.33 18201.98,8013.5L18202.62,8011.74L18203.64,8010.08C18210.58,7998.57 18216.22,7989.03 18221.86,7979.41C18271.28,7895.34 18337.32,7782.95 18429.46,7747.42L18419.95,7725.48C18354.74,7623.78 18375.58,7491.67 18398.52,7347.7L18398.47,7347.7L18398.66,7346.61L18399.19,7343.48L18400.66,7340.6C18410.97,7320.35 18425,7299.56 18443.99,7281.29C18450.11,7275.38 18456.82,7269.67 18464,7264.4L18465.18,7262.64L18466.73,7262.45C18481.45,7252.04 18498.31,7243.17 18517.81,7236.57L18518.53,7236.38C18572.41,7220.4 18599.02,7241.96 18626.81,7264.46L18626.86,7264.51C18633.33,7269.75 18639.79,7275.12 18646.76,7279.66L18663.91,7229.01L18664.26,7227.94L18665.09,7226.33C18693.7,7170.23 18745.34,7104.75 18807.78,7076.27C18820.55,7070.45 18833.85,7066.1 18847.42,7063.67C18861.21,7061.18 18875.5,7060.62 18889.93,7062.38L18890.09,7062.44L18891.29,7062.6L18893.77,7062.94L18895.88,7063.75C18908.01,7068.45 18919.45,7073.82 18930.43,7079.67ZM18762.28,7596.69C18729.87,7617.55 18689.83,7630.7 18657.29,7625.78L18654.56,7625.38L18651.04,7624.31L18650.82,7624.26L18650.82,7624.29L18650.5,7624.15L18650.82,7624.26L18650.82,7624.29C18644.09,7622.2 18637.55,7619.32 18631.24,7615.87L18630.92,7615.74C18625.5,7612.75 18619.83,7608.92 18614.22,7604.6C18589.65,7585.52 18570.01,7557.04 18559.48,7535.78L18556.79,7530.36L18555.85,7524.21C18550.88,7491.75 18550.83,7461.88 18563.95,7434.29C18572.41,7416.44 18585.5,7401 18605.11,7388.39C18601.56,7383.47 18597.79,7378.91 18593.81,7374.77C18570.6,7350.72 18540.36,7339.98 18511.13,7339.42C18436.57,7466.88 18477.01,7603.69 18513.32,7722.28L18523.58,7726.9C18532.74,7730.93 18542.31,7734.75 18551.66,7737.88C18597.85,7753.29 18655.37,7759.6 18705.16,7726.37C18713.52,7717.92 18721,7709.24 18727.47,7700.56C18734.26,7691.42 18740.05,7682.15 18744.75,7673.07C18758.43,7646.67 18764.1,7620.28 18762.28,7596.69ZM18398.52,7347.65L18398.47,7347.7L18398.52,7347.7L18398.52,7347.65Z" style="fill:rgb(237,50,55);fill-rule:nonzero;"/>
        </g>
        <g id="_1_19" transform="matrix(0.024337,0,0,0.024337,-61.409571,44.457965)">
            <path d="M18975.94,4181.43C22209.05,4181.52 24700.31,5954.41 24700.31,8082.53C24700.31,9397.84 23748.5,10545.34 22258.49,11230.36C23108.84,9964.47 22411.82,7698.04 20701.78,6176.22C18976.4,4648.11 16856.36,4437.68 15998.58,5700.24C15122.92,6972.06 15819.12,9250.41 17536.41,10769.51C18146.32,11309.65 18804.4,11684.8 19439.13,11888.81C19286.56,11896.57 19132.18,11900.69 18975.94,11900.69C15742.79,11900.69 13103.3,10173.98 13103.26,8045.68C13103.3,5917.47 15742.79,4181.34 18975.94,4181.43Z" style="fill:rgb(237,50,55);"/>
        </g>
    </g>
</svg>
