<?xml version="1.0" encoding="UTF-8" standalone="no"?>
<!DOCTYPE svg PUBLIC "-//W3C//DTD SVG 1.1//EN" "http://www.w3.org/Graphics/SVG/1.1/DTD/svg11.dtd">
<svg width="100%" height="100%" viewBox="0 0 100 100" version="1.1" xmlns="http://www.w3.org/2000/svg" xmlns:xlink="http://www.w3.org/1999/xlink" xml:space="preserve" xmlns:serif="http://www.serif.com/" style="fill-rule:evenodd;clip-rule:evenodd;stroke-linejoin:round;stroke-miterlimit:2;">
    <g>
        <g transform="matrix(0.113793,0,0,0.113793,-9.464509,-8.252018)">
            <g transform="matrix(1,0,0,1,97,78)">
                <path d="M719.963,625.219C724.872,629.376 775.981,666.018 795.657,681.293C799.235,684.071 799.3,683.933 841.34,714.743C842.554,715.633 856.247,725.668 844.389,733.314C841.68,735.06 787.273,748.545 708.571,775.734C597.803,814.001 549.642,835.541 503.37,854.195C501.907,854.785 489.852,859.645 485.321,862.137C474.458,868.112 469.762,864.061 468.757,863.193C450.829,847.726 438.585,833.695 430.841,828.117C429.74,827.324 430.249,826.822 418.743,816.232C384.848,785.032 385.148,784.841 351.808,753.169C348.208,749.749 347.417,749.849 336.355,754.166C334.576,754.86 218.217,794.591 216.52,794.691C214.589,794.804 212.089,794.951 194.763,784.132C106.441,728.975 61.294,681.371 51.224,670.753C40.734,659.692 40.963,659.629 30.786,648.251C20.057,636.257 8.812,620.465 8.21,615.544C5.966,597.193 5.472,571.479 4.474,566.505C4.469,566.482 2.3,516.474 2.211,500.502C1.874,439.937 1.693,400.278 2.749,392.517C3.786,384.898 0.95,349.745 6.81,343.793C12.851,337.657 90.084,319.494 91.056,316.379C91.466,315.066 72.867,254.165 69.919,248.319C68.49,245.484 63.917,231.036 63.437,229.52C59.82,218.094 74.968,216.367 76.448,216.198C76.808,216.157 90.395,212.777 95.453,212.212C103.13,211.356 102.807,209.993 110.452,209.191C119.178,208.275 118.755,206.587 127.479,205.347C132.543,204.627 130.341,202.145 126.51,191.496C124.778,186.682 109.548,147.54 107.197,142.636C104.917,137.882 95.713,112.314 76.151,72.665C68.373,56.901 84.415,56.17 89.52,54.568C91.151,54.057 91.329,55.28 110.497,50.486C113.48,49.74 243.977,25.261 256.441,24.146C256.891,24.105 273.002,21.378 274.441,21.134C293.009,17.991 407.238,-0.185 414.36,2.821C421.932,6.018 422.433,16.747 429.162,29.658C429.643,30.58 428.75,30.836 434.146,41.656C435.333,44.035 434.4,44.401 446.562,72.474C449.853,80.068 459.449,105.52 461.111,108.687C462.802,111.908 469.93,137.231 473.511,137.257C479.52,137.301 514.571,127.406 520.731,131.059C528.012,135.376 530.99,153.278 537.114,164.685C537.71,165.796 536.802,166.127 542.501,179.499C547.933,192.244 554.054,215.633 556.483,215.64C559.729,215.65 614.442,204.562 618.507,205.472C622.216,206.302 646.012,219.873 675.181,248.826C689.925,263.461 690.02,264.535 695.586,270.421C701.986,277.188 700.921,277.98 707.157,284.803C714.873,293.247 738.042,328.575 752.169,358.66C780.631,419.268 790.141,481.523 790.84,490.452C791.153,494.447 792.16,494.282 792.781,504.477C793.029,508.562 793.553,508.447 793.708,512.49C793.939,518.53 794.569,518.371 794.759,524.49C794.964,531.078 795.616,530.951 795.835,537.478C796.055,544.011 796.671,543.868 796.729,550.498C797.113,594.521 797.479,596.152 792.571,598.604C783.613,603.078 783.381,602.264 772.463,606.404C771.13,606.91 743.187,616.093 740.639,616.93C738.979,617.476 720.278,623.623 719.942,623.925C719.865,623.994 719.942,623.925 719.963,625.219ZM318.098,733.505C318.046,738.354 318.857,739.439 314.357,741.155C309.451,743.026 277.572,753.294 234.45,768.335C225.522,771.45 225.142,771.078 224.775,770.377C223.298,767.548 225.554,767.254 223.285,730.513C222.764,722.074 219.166,603.956 155.79,494.333C140.044,467.095 117.173,430.383 70.615,384.38C65.4,379.227 51.407,367.677 49.7,366.268C37.173,355.928 36.475,356.035 36.91,354.727C37.433,353.155 98.584,335.052 100.331,335.91C102.699,337.074 118.177,362.566 149.321,377.869C162.537,384.363 170.398,387.21 236.538,373.708C357.774,348.958 370.879,346.78 488.552,316.79C495.725,314.962 564.548,297.422 576.21,287.162C582.054,282.021 598.243,267.589 567.645,237.36C565.662,235.401 564.597,233.879 567.531,233.676C571.064,233.431 612.751,224.885 615.357,225.917C621.617,228.396 669.241,261.121 705.905,317.177C753.975,390.674 760.065,443.861 766.561,467.481C770.241,480.862 773.045,508.885 773.408,512.51C774.476,523.186 776.111,523.047 776.38,559.501C776.419,564.854 777.301,564.72 777.185,580.496C777.143,586.217 768.283,586.122 756.34,591.109C754.241,591.985 754.126,591.542 729.418,600.236C719.673,603.665 719.251,603.101 718.859,602.334C718.027,600.704 719.454,600.517 717.841,579.488C717.558,575.797 718.12,568.391 717.2,563.572C716.148,558.057 716.461,533.648 710.16,520.669C707.944,516.104 692.599,490.344 658.458,499.3C536.75,531.228 493.032,541.597 348.401,594.217C324.714,602.835 308.187,623.353 311.937,653.459C313.787,668.311 317.065,692.621 318.098,733.505ZM139.562,64.904C144.265,63.934 168.37,58.96 198.56,53.876C201.115,53.445 229.988,48.583 230.488,48.457C235.956,47.078 236.034,47.83 241.498,46.493C255.083,43.167 377.221,25.149 386.517,24.752C394.888,24.395 400.976,22.983 401.551,22.892C406.75,22.072 405.357,25.203 416.476,50.51C425.969,72.115 424.977,72.49 425.907,74.315C429.684,81.718 432.353,90.355 432.87,91.323C436.191,97.543 434.644,98.094 437.906,104.315C441.815,111.769 440.784,112.156 441.883,114.325C445.483,121.432 476.695,205.637 482.536,222.486C487.033,235.457 507.505,289.856 506.279,291.334C504.162,293.886 313.144,341.288 235.444,353.126C235.112,353.177 210.657,356.291 209.492,356.331C203.521,356.536 204.132,353.706 201.142,346.672C197.152,337.283 194.689,338.209 182.594,295.471C176.224,272.965 143.271,174.457 124.537,132.484C123.998,131.277 119.148,120.41 117.982,117.315C111.282,99.52 96.947,73.528 98.771,72.914C99.815,72.563 136.297,65.533 139.562,64.904ZM452.65,821.345C438.989,808.001 358.024,732.306 356.75,731.208C349.589,725.044 352.176,722.455 360.159,711.22C405.977,646.739 618.919,578.852 623.525,579.061C625.494,579.151 721.876,651.679 785.667,698.24C787.245,699.392 805.389,712.635 805.39,712.636C814.247,719.995 816.839,719.761 816.669,721.558C816.606,722.228 799.828,726.614 798.349,727.001C753.735,738.665 744.475,743.612 723.528,749.574C706.535,754.411 580.331,801 574.684,803.887C568.582,807.007 554.146,812.392 552.335,813.068C536.84,818.848 531.586,821.597 530.332,822.07C509.788,829.824 510.116,830.42 508.335,831.087C489.158,838.271 479.755,845.929 474.953,842.031C469.465,837.576 454.401,823.035 452.65,821.345ZM139.112,264.571C139.668,267.578 145.817,300.836 145.041,302.333C144.65,303.088 144.496,303.175 112.586,311.8C109.109,312.74 109.426,308.847 106.744,300.433C105.729,297.25 106.077,297.196 94.419,260.528C92.154,253.403 88.712,244.047 88.188,242.624C85.616,235.634 86.168,235.074 86.627,234.609C88.448,232.76 116.763,227.558 119.409,227.072C128.398,225.421 130.13,223.964 131.298,228.542C134.569,241.352 136.851,254.398 139.112,264.571ZM699.061,595.507C699.161,606.966 699.629,609.117 697.47,608.589C696.653,608.389 687.232,601.365 686.359,600.713C663.238,583.474 661.578,584.143 661.105,578.552C660.115,566.867 661.002,566.873 656.654,529.485C655.901,523.012 653.41,520.414 660.553,518.751C663.528,518.059 682.182,510.912 692.192,528.658C697.052,537.274 697.153,570.362 699.061,595.507ZM515.439,223.115C504.93,225.229 504.326,224.11 503.886,223.296C502.953,221.568 492.186,189.78 486.88,177.34C485.217,173.442 481.173,161.803 480.7,160.443C479.515,157.032 479.854,156.077 483.521,155.665C484.727,155.529 499.345,152.299 505.519,151.647C507.493,151.438 509.143,149.145 511.14,153.661C511.722,154.978 525.476,190.513 528.303,198.556C532.4,210.21 536.643,218.531 533.634,219.784C532.081,220.431 522.029,221.438 515.439,223.115Z" style="fill-opacity:0.98;"/>
                <path d="M665.803,324.413C671.224,345.432 619.815,350.808 621.346,331.489C622.248,320.102 648.115,309.728 657.679,315.136C659.424,316.122 663.438,317.95 665.803,324.413Z" style="fill:rgb(1,0,1);fill-opacity:0.97;"/>
                <path d="M579.532,336.106C581.169,336.326 598.84,338.703 592.246,352.37C586.523,364.232 544.641,369.432 550.531,348.51C550.956,347.002 557.846,334.84 579.532,336.106Z" style="fill-opacity:0.98;"/>
            </g>
        </g>
    </g>
</svg>
